<svg fill="none" height="192" viewBox="0 0 480 192" width="480" xmlns="http://www.w3.org/2000/svg" xmlns:xlink="http://www.w3.org/1999/xlink"><filter id="a" color-interpolation-filters="sRGB" filterUnits="userSpaceOnUse" height="200.235" width="328.235" x="75.8823" y="29.4485"><feFlood flood-opacity="0" result="BackgroundImageFix"/><feColorMatrix in="SourceAlpha" result="hardAlpha" type="matrix" values="0 0 0 0 0 0 0 0 0 0 0 0 0 0 0 0 0 0 127 0"/><feOffset dy="2.03796"/><feGaussianBlur stdDeviation="1.81152"/><feColorMatrix type="matrix" values="0 0 0 0 0.278431 0 0 0 0 0.32549 0 0 0 0 0.419608 0 0 0 0.111492 0"/><feBlend in2="BackgroundImageFix" mode="normal" result="effect1_dropShadow_148_31415"/><feColorMatrix in="SourceAlpha" result="hardAlpha" type="matrix" values="0 0 0 0 0 0 0 0 0 0 0 0 0 0 0 0 0 0 127 0"/><feOffset dy="4"/><feGaussianBlur stdDeviation="6"/><feColorMatrix type="matrix" values="0 0 0 0 0.278431 0 0 0 0 0.32549 0 0 0 0 0.419608 0 0 0 0.12 0"/><feBlend in2="effect1_dropShadow_148_31415" mode="normal" result="effect2_dropShadow_148_31415"/><feColorMatrix in="SourceAlpha" result="hardAlpha" type="matrix" values="0 0 0 0 0 0 0 0 0 0 0 0 0 0 0 0 0 0 127 0"/><feOffset dy="13.5662"/><feGaussianBlur stdDeviation="12.0588"/><feColorMatrix type="matrix" values="0 0 0 0 0.278431 0 0 0 0 0.32549 0 0 0 0 0.419608 0 0 0 0.208508 0"/><feBlend in2="effect2_dropShadow_148_31415" mode="normal" result="effect3_dropShadow_148_31415"/><feBlend in="SourceGraphic" in2="effect3_dropShadow_148_31415" mode="normal" result="shape"/></filter><linearGradient id="b"><stop offset="0" stop-color="#cfd3dc" stop-opacity="0"/><stop offset="1" stop-color="#cfd3dc"/></linearGradient><linearGradient id="c" gradientUnits="userSpaceOnUse" x1="80.5" x2="80.5" xlink:href="#b" y1="100" y2="180"/><linearGradient id="d" gradientUnits="userSpaceOnUse" x1="480.5" x2="480.5" xlink:href="#b" y1="100" y2="148"/><linearGradient id="e" gradientUnits="userSpaceOnUse" x1="447.5" x2="447.5" y1="0" y2="192"><stop offset="0" stop-color="#cfd3dc"/><stop offset="1" stop-color="#cfd3dc" stop-opacity="0"/></linearGradient><linearGradient id="f" gradientUnits="userSpaceOnUse" x1="380" x2="100" y1="113" y2="112.999"><stop offset="0" stop-color="#cfd3dc"/><stop offset="1" stop-color="#cfd3dc" stop-opacity=".5"/></linearGradient><linearGradient id="g"><stop offset="0" stop-color="#fff" stop-opacity="0"/><stop offset="1" stop-color="#fff"/></linearGradient><linearGradient id="h" gradientUnits="userSpaceOnUse" x1="240" x2="240" xlink:href="#g" y1="112" y2="192"/><linearGradient id="i" gradientUnits="userSpaceOnUse" x1="240" x2="240" xlink:href="#g" y1="143" y2="192"/><clipPath id="j"><path d="m0 0h480v192h-480z"/></clipPath><g clip-path="url(#j)"><path d="m0 0h480v192h-480z" fill="#fcfcfd"/><path d="m80 100h1v80h-1z" fill="url(#c)" opacity=".3" transform="matrix(0 1 -1 0 180 20)"/><path d="m480 100h1v48h-1z" fill="url(#d)" opacity=".3" transform="matrix(0 1 -1 0 580 -380)"/><path d="m447 0h1v192h-1z" fill="url(#e)" opacity=".5"/><g filter="url(#a)"><rect fill="#fff" height="152" rx="8" width="280" x="100" y="40"/><path clip-rule="evenodd" d="m124 56.2c-4.42 0-8 3.58-8 8 0 3.54 2.29 6.53 5.47 7.59.4.07.55-.17.55-.38 0-.19-.01-.82-.01-1.49-2.01.37-2.53-.49-2.69-.94-.09-.23-.48-.94-.82-1.13-.28-.15-.68-.52-.01-.53.63-.01 1.08.58 1.23.82.72 1.21 1.87.87 2.33.66.07-.52.28-.87.51-1.07-1.78-.2-3.64-.89-3.64-3.95 0-.87.31-1.59.82-2.15-.08-.2-.36-1.02.08-2.12 0 0 .67-.21 2.2.82.64-.18 1.32-.27 2-.27s1.36.09 2 .27c1.53-1.04 2.2-.82 2.2-.82.44 1.1.16 1.92.08 2.12.51.56.82 1.27.82 2.15 0 3.07-1.87 3.75-3.65 3.95.29.25.54.73.54 1.48 0 1.07-.01 1.93-.01 2.2 0 .21.15.46.55.38 3.16-1.06 5.45-4.06 5.45-7.59 0-4.42-3.58-8-8-8z" fill="#000" fill-rule="evenodd" opacity=".8"/><rect fill="#f0f1f4" height="8" rx="4" width="100" x="144" y="60"/><rect fill="#e6e8ec" height="8" rx="4" width="140" x="144" y="74"/><rect fill="#f9f9fa" height="8" rx="4" width="60" x="144" y="88"/><path d="m145.5 139.243c0-.668.42-1.341 1.238-1.872.814-.528 1.966-.871 3.262-.871s2.448.343 3.262.871c.818.531 1.238 1.204 1.238 1.872v1.257h-9zm7-7.243c0 1.378-1.122 2.5-2.5 2.5s-2.5-1.122-2.5-2.5 1.122-2.5 2.5-2.5 2.5 1.122 2.5 2.5z" fill="#a4acbc" stroke="#a4acbc"/><path d="m162.342 139h1.147l.64-1.904h2.695l.635 1.904h1.152l-2.544-7.046h-1.181zm3.091-5.811h.083l1.015 3.028h-2.109zm6.093 5.914c1.26 0 2.198-.669 2.198-1.651v-.01c0-.766-.489-1.201-1.509-1.44l-.84-.19c-.596-.142-.84-.347-.84-.679v-.01c0-.425.42-.713 1.001-.713.596 0 .972.278 1.074.65v.009h1.011v-.005c-.093-.864-.869-1.469-2.08-1.469-1.201 0-2.061.664-2.061 1.587v.005c0 .776.464 1.23 1.465 1.459l.845.196c.615.141.864.366.864.698v.01c0 .434-.454.732-1.108.732-.63 0-1.016-.268-1.148-.669l-.004-.005h-1.06v.005c.103.889.913 1.49 2.192 1.49zm5.293 0c1.26 0 2.198-.669 2.198-1.651v-.01c0-.766-.489-1.201-1.509-1.44l-.84-.19c-.596-.142-.84-.347-.84-.679v-.01c0-.425.42-.713 1.001-.713.596 0 .972.278 1.074.65v.009h1.011v-.005c-.093-.864-.869-1.469-2.08-1.469-1.201 0-2.061.664-2.061 1.587v.005c0 .776.464 1.23 1.465 1.459l.845.196c.615.141.864.366.864.698v.01c0 .434-.454.732-1.108.732-.63 0-1.016-.268-1.148-.669l-.004-.005h-1.06v.005c.102.889.913 1.49 2.192 1.49zm4.014-6.353c.361 0 .664-.298.664-.659 0-.366-.303-.664-.664-.664-.366 0-.664.298-.664.664 0 .361.298.659.664.659zm-.532 6.25h1.054v-5.303h-1.054zm4.839 1.87c1.504 0 2.456-.771 2.456-1.977v-5.196h-1.055v.869h-.063c-.308-.595-.884-.962-1.626-.962-1.377 0-2.222 1.07-2.222 2.584v.009c0 1.494.84 2.544 2.202 2.544.728 0 1.314-.322 1.636-.898h.078v1.045c0 .722-.518 1.133-1.392 1.133-.717 0-1.147-.259-1.235-.625l-.005-.01h-1.069l-.01.01c.127.883.957 1.474 2.305 1.474zm-.015-3.003c-.903 0-1.411-.688-1.411-1.675v-.009c0-.987.508-1.68 1.411-1.68.894 0 1.44.693 1.44 1.68v.009c0 .992-.542 1.675-1.44 1.675zm3.994 1.133h1.06v-3.11c0-.855.483-1.387 1.259-1.387.777 0 1.143.435 1.143 1.313v3.184h1.055v-3.433c0-1.264-.655-1.972-1.841-1.972-.772 0-1.279.342-1.538.908h-.078v-.806h-1.06zm10.64 0h1.094v-6.104h2.211v-.942h-5.522v.942h2.217zm4.985.088c.703 0 1.26-.303 1.572-.84h.083v.752h1.05v-3.628c0-1.113-.752-1.777-2.085-1.777-1.206 0-2.041.581-2.168 1.45l-.005.034h1.021l.005-.019c.127-.376.512-.591 1.098-.591.718 0 1.084.322 1.084.903v.469l-1.435.083c-1.265.078-1.978.63-1.978 1.577v.01c0 .962.747 1.577 1.758 1.577zm-.703-1.621v-.01c0-.478.332-.742 1.064-.786l1.294-.083v.454c0 .684-.581 1.201-1.372 1.201-.571 0-.986-.288-.986-.776zm6.831 1.636c1.26 0 2.197-.669 2.197-1.651v-.01c0-.766-.488-1.201-1.508-1.44l-.84-.19c-.596-.142-.84-.347-.84-.679v-.01c0-.425.42-.713 1.001-.713.596 0 .972.278 1.074.65v.009h1.011v-.005c-.093-.864-.869-1.469-2.08-1.469-1.201 0-2.061.664-2.061 1.587v.005c0 .776.464 1.23 1.465 1.459l.845.196c.615.141.864.366.864.698v.01c0 .434-.454.732-1.108.732-.63 0-1.016-.268-1.148-.669l-.005-.005h-1.059v.005c.102.889.913 1.49 2.192 1.49zm3.511-.103h1.059v-1.929l.454-.454 1.827 2.383h1.289l-2.359-3.066 2.212-2.237h-1.24l-2.104 2.237h-.079v-4.317h-1.059z" fill="#717d96"/><path d="m100 112h280v1h-280z" fill="url(#f)" opacity=".3"/></g><path d="m0 112h480v80h-480z" fill="url(#h)"/><path d="m0 143h480v49h-480z" fill="url(#i)"/></g></svg>