<svg fill="none" height="192" viewBox="0 0 480 192" width="480" xmlns="http://www.w3.org/2000/svg" xmlns:xlink="http://www.w3.org/1999/xlink"><filter id="a" color-interpolation-filters="sRGB" filterUnits="userSpaceOnUse" height="208" width="440" x="20" y="54"><feFlood flood-opacity="0" result="BackgroundImageFix"/><feColorMatrix in="SourceAlpha" result="hardAlpha" type="matrix" values="0 0 0 0 0 0 0 0 0 0 0 0 0 0 0 0 0 0 127 0"/><feOffset dy="2.03796"/><feGaussianBlur stdDeviation="1.81152"/><feColorMatrix type="matrix" values="0 0 0 0 0.278431 0 0 0 0 0.32549 0 0 0 0 0.419608 0 0 0 0.111492 0"/><feBlend in2="BackgroundImageFix" mode="normal" result="effect1_dropShadow_148_31383"/><feColorMatrix in="SourceAlpha" result="hardAlpha" type="matrix" values="0 0 0 0 0 0 0 0 0 0 0 0 0 0 0 0 0 0 127 0"/><feOffset dy="4"/><feGaussianBlur stdDeviation="6"/><feColorMatrix type="matrix" values="0 0 0 0 0.278431 0 0 0 0 0.32549 0 0 0 0 0.419608 0 0 0 0.12 0"/><feBlend in2="effect1_dropShadow_148_31383" mode="normal" result="effect2_dropShadow_148_31383"/><feColorMatrix in="SourceAlpha" result="hardAlpha" type="matrix" values="0 0 0 0 0 0 0 0 0 0 0 0 0 0 0 0 0 0 127 0"/><feOffset dy="13.5662"/><feGaussianBlur stdDeviation="12.0588"/><feColorMatrix type="matrix" values="0 0 0 0 0.278431 0 0 0 0 0.32549 0 0 0 0 0.419608 0 0 0 0.208508 0"/><feBlend in2="effect2_dropShadow_148_31383" mode="normal" result="effect3_dropShadow_148_31383"/><feColorMatrix in="SourceAlpha" result="hardAlpha" type="matrix" values="0 0 0 0 0 0 0 0 0 0 0 0 0 0 0 0 0 0 127 0"/><feOffset dy="45"/><feGaussianBlur stdDeviation="40"/><feColorMatrix type="matrix" values="0 0 0 0 0.278431 0 0 0 0 0.32549 0 0 0 0 0.419608 0 0 0 0.32 0"/><feBlend in2="effect3_dropShadow_148_31383" mode="normal" result="effect4_dropShadow_148_31383"/><feBlend in="SourceGraphic" in2="effect4_dropShadow_148_31383" mode="normal" result="shape"/></filter><linearGradient id="b"><stop offset="0" stop-color="#cfd3dc" stop-opacity="0"/><stop offset="1" stop-color="#cfd3dc"/></linearGradient><linearGradient id="c" gradientUnits="userSpaceOnUse" x1="80.5" x2="80.5" xlink:href="#b" y1="100" y2="180"/><linearGradient id="d" gradientUnits="userSpaceOnUse" x1="480.5" x2="480.5" xlink:href="#b" y1="100" y2="148"/><linearGradient id="e" gradientUnits="userSpaceOnUse" x1="447.5" x2="447.5" y1="0" y2="192"><stop offset="0" stop-color="#cfd3dc"/><stop offset="1" stop-color="#cfd3dc" stop-opacity="0"/></linearGradient><linearGradient id="f"><stop offset="0" stop-color="#a52714" stop-opacity=".6"/><stop offset=".66" stop-color="#a52714" stop-opacity="0"/></linearGradient><linearGradient id="g" gradientUnits="userSpaceOnUse" x1="129.94" x2="134.712" xlink:href="#f" y1="54.0928" y2="51.3049"/><linearGradient id="h" gradientUnits="userSpaceOnUse" x1="137.352" x2="132.049" y1="62.2273" y2="59.1209"><stop offset="0" stop-color="#055524" stop-opacity=".4"/><stop offset=".33" stop-color="#055524" stop-opacity="0"/></linearGradient><linearGradient id="i"><stop offset="0" stop-color="#ea6100" stop-opacity=".3"/><stop offset=".66" stop-color="#ea6100" stop-opacity="0"/></linearGradient><linearGradient id="j" gradientUnits="userSpaceOnUse" x1="138.351" x2="139.686" xlink:href="#i" y1="51.8004" y2="57.6482"/><linearGradient id="k" gradientUnits="userSpaceOnUse" x1="138.351" x2="139.686" xlink:href="#i" y1="51.8003" y2="57.6481"/><linearGradient id="l" gradientUnits="userSpaceOnUse" x1="129.94" x2="134.712" xlink:href="#f" y1="54.0927" y2="51.3048"/><linearGradient id="m"><stop offset="0" stop-color="#3e2723" stop-opacity=".2"/><stop offset="1" stop-color="#3e2723" stop-opacity="0"/></linearGradient><radialGradient id="n" cx="135.653" cy="52.3588" gradientUnits="userSpaceOnUse" r="7.64345" xlink:href="#m"/><radialGradient id="o" cx="129.262" cy="51.6836" gradientUnits="userSpaceOnUse" r="7.09491" xlink:href="#m"/><radialGradient id="p" cx="135.986" cy="56.0126" gradientUnits="userSpaceOnUse" r="7.98818"><stop offset="0" stop-color="#263238" stop-opacity=".2"/><stop offset="1" stop-color="#263238" stop-opacity="0"/></radialGradient><radialGradient id="q" cx="130.39" cy="50.1831" gradientUnits="userSpaceOnUse" r="16.0682"><stop offset="0" stop-color="#fff" stop-opacity=".1"/><stop offset="1" stop-color="#fff" stop-opacity="0"/></radialGradient><linearGradient id="r"><stop offset="0" stop-color="#fff" stop-opacity="0"/><stop offset="1" stop-color="#fff"/></linearGradient><linearGradient id="s" gradientUnits="userSpaceOnUse" x1="240" x2="240" xlink:href="#r" y1="112" y2="192"/><linearGradient id="t" gradientUnits="userSpaceOnUse" x1="240" x2="240" xlink:href="#r" y1="143" y2="192"/><clipPath id="u"><path d="m0 0h480v192h-480z"/></clipPath><clipPath id="v"><path d="m128 48h16v16h-16z"/></clipPath><mask id="w" height="16" maskUnits="userSpaceOnUse" width="16" x="128" y="48"><path d="m136 64c4.418 0 8-3.5817 8-8s-3.582-8-8-8-8 3.5817-8 8 3.582 8 8 8z" fill="#fff"/></mask><mask id="x" height="16" maskUnits="userSpaceOnUse" width="16" x="128" y="48"><path d="m136 64c4.418 0 8-3.5817 8-8s-3.582-8-8-8-8 3.5817-8 8 3.582 8 8 8z" fill="#fff"/></mask><mask id="y" height="16" maskUnits="userSpaceOnUse" width="16" x="128" y="48"><path d="m136 64c4.418 0 8-3.5817 8-8s-3.582-8-8-8-8 3.5817-8 8 3.582 8 8 8z" fill="#fff"/></mask><mask id="z" height="16" maskUnits="userSpaceOnUse" width="16" x="128" y="48"><path d="m136 64c4.418 0 8-3.5817 8-8s-3.582-8-8-8-8 3.5817-8 8 3.582 8 8 8z" fill="#fff"/></mask><mask id="A" height="16" maskUnits="userSpaceOnUse" width="16" x="128" y="48"><path d="m136 64c4.418 0 8-3.5817 8-8s-3.582-8-8-8-8 3.5817-8 8 3.582 8 8 8z" fill="#fff"/></mask><mask id="B" height="15" maskUnits="userSpaceOnUse" width="12" x="128" y="49"><path d="m128 64h7.615l3.535-3.5346v-2.6472h-6.299l-4.851-8.32z" fill="#fff"/></mask><mask id="C" height="16" maskUnits="userSpaceOnUse" width="16" x="128" y="48"><path d="m136 64c4.418 0 8-3.5817 8-8s-3.582-8-8-8-8 3.5817-8 8 3.582 8 8 8z" fill="#fff"/></mask><mask id="D" height="16" maskUnits="userSpaceOnUse" width="16" x="128" y="48"><path d="m136 64c4.418 0 8-3.5817 8-8s-3.582-8-8-8-8 3.5817-8 8 3.582 8 8 8z" fill="#fff"/></mask><mask id="E" height="12" maskUnits="userSpaceOnUse" width="9" x="135" y="52"><path d="m136 52.3635 3.15 5.4546-3.535 6.1818h8.385v-11.6364z" fill="#fff"/></mask><mask id="F" height="16" maskUnits="userSpaceOnUse" width="16" x="128" y="48"><path d="m136 64c4.418 0 8-3.5817 8-8s-3.582-8-8-8-8 3.5817-8 8 3.582 8 8 8z" fill="#fff"/></mask><mask id="G" height="16" maskUnits="userSpaceOnUse" width="16" x="128" y="48"><path d="m136 64c4.418 0 8-3.5817 8-8s-3.582-8-8-8-8 3.5817-8 8 3.582 8 8 8z" fill="#fff"/></mask><mask id="H" height="10" maskUnits="userSpaceOnUse" width="15" x="129" y="48"><path d="m129.27 48v3.6673l3.581 6.1509 3.149-5.4546h8v-4.3636z" fill="#fff"/></mask><mask id="I" height="16" maskUnits="userSpaceOnUse" width="16" x="128" y="48"><path d="m136 64c4.418 0 8-3.5817 8-8s-3.582-8-8-8-8 3.5817-8 8 3.582 8 8 8z" fill="#fff"/></mask><mask id="J" height="16" maskUnits="userSpaceOnUse" width="16" x="128" y="48"><path d="m136 64c4.418 0 8-3.5817 8-8s-3.582-8-8-8-8 3.5817-8 8 3.582 8 8 8z" fill="#fff"/></mask><mask id="K" height="16" maskUnits="userSpaceOnUse" width="16" x="128" y="48"><path d="m136 64c4.418 0 8-3.5817 8-8s-3.582-8-8-8-8 3.5817-8 8 3.582 8 8 8z" fill="#fff"/></mask><mask id="L" height="16" maskUnits="userSpaceOnUse" width="16" x="128" y="48"><path d="m136 64c4.418 0 8-3.5817 8-8s-3.582-8-8-8-8 3.5817-8 8 3.582 8 8 8z" fill="#fff"/></mask><mask id="M" height="16" maskUnits="userSpaceOnUse" width="16" x="128" y="48"><path d="m136 64c4.418 0 8-3.5817 8-8s-3.582-8-8-8-8 3.5817-8 8 3.582 8 8 8z" fill="#fff"/></mask><g clip-path="url(#u)"><path d="m0 0h480v192h-480z" fill="#fcfcfd"/><path d="m80 100h1v80h-1z" fill="url(#c)" opacity=".3" transform="matrix(0 1 -1 0 180 20)"/><path d="m480 100h1v48h-1z" fill="url(#d)" opacity=".3" transform="matrix(0 1 -1 0 580 -380)"/><path d="m447 0h1v192h-1z" fill="url(#e)" opacity=".5"/><rect fill="#fff" height="229" rx="6.5" width="241" x="119.5" y="39.5"/><rect fill="#f9f9fa" height="8" rx="4" width="140" x="152" y="52"/><rect fill="#e6e8ec" height="8" rx="4" width="100" x="152" y="66"/><rect fill="#e6e8ec" height="8" rx="4" width="69" x="255" y="66"/><path d="m313.25 79.5v-6.75m0 6.75c0 1.2426-1.007 2.25-2.25 2.25m2.25-2.25c0 1.2426 1.007 2.25 2.25 2.25m-2.25-9c0-1.2426-1.007-2.25-2.25-2.25m2.25 2.25c0-1.2426 1.007-2.25 2.25-2.25" stroke="#1a202c" stroke-linecap="round" stroke-linejoin="round" stroke-width="2"/><g clip-path="url(#v)" opacity=".8"><g mask="url(#w)"><path d="m129.27 48v9.8182h3.581l3.149-5.4546h8v-4.3636z" fill="#db4437"/><path d="m129.27 48v9.8182h3.581l3.149-5.4546h8v-4.3636z" fill="url(#g)"/></g><g mask="url(#x)"><path d="m132.937 57.7863-3.621-6.21-.052.0909 3.594 6.1636z" fill="#3e2723" fill-opacity=".15"/></g><g mask="url(#y)"><path d="m128 64h7.615l3.535-3.5346v-2.6472h-6.299l-4.851-8.32z" fill="#0f9d58"/><path d="m128 64h7.615l3.535-3.5346v-2.6472h-6.299l-4.851-8.32z" fill="url(#h)"/></g><g mask="url(#z)"><path d="m139.076 57.939-.075-.0436-3.49 6.1045h.104l3.464-6.0582z" fill="#263238" fill-opacity=".15"/></g><g mask="url(#A)"><g mask="url(#B)"><path d="m136 52.3636 3.15 5.4546-3.535 6.1818h8.385v-11.6364z" fill="#ffcd40"/><path d="m136 52.3636 3.15 5.4546-3.535 6.1818h8.385v-11.6364z" fill="url(#j)"/></g></g><g mask="url(#C)"><path d="m136 52.3635 3.15 5.4546-3.535 6.1818h8.385v-11.6364z" fill="#ffcd40"/><path d="m136 52.3635 3.15 5.4546-3.535 6.1818h8.385v-11.6364z" fill="url(#k)"/></g><g mask="url(#D)"><g mask="url(#E)"><path d="m129.27 47.9999v9.8182h3.581l3.149-5.4546h8v-4.3636z" fill="#db4437"/><path d="m129.27 47.9999v9.8182h3.581l3.149-5.4546h8v-4.3636z" fill="url(#l)"/></g></g><g mask="url(#F)"><path d="m136 52.3635v1.9046l7.127-1.9046z" fill="url(#n)"/></g><g mask="url(#G)"><g mask="url(#H)"><path d="m128 64h7.615l3.535-3.5346v-2.6472h-6.299l-4.851-8.32z" fill="#0f9d58"/><path d="m128 64h7.615l3.535-3.5346v-2.6472h-6.299l-4.851-8.32z" fill="url(#h)"/></g></g><g mask="url(#I)"><path d="m129.27 51.6772 5.205 5.2037-1.624.9373z" fill="url(#o)"/></g><g mask="url(#J)"><path d="m135.621 63.9901 1.906-7.1091 1.623.9373z" fill="url(#p)"/></g><g mask="url(#K)"><path d="m136 59.6363c2.008 0 3.636-1.6281 3.636-3.6364s-1.628-3.6364-3.636-3.6364-3.636 1.6281-3.636 3.6364 1.628 3.6364 3.636 3.6364z" fill="#f1f1f1"/><path d="m136 58.909c1.607 0 2.909-1.3024 2.909-2.9091 0-1.6066-1.302-2.9091-2.909-2.9091s-2.909 1.3025-2.909 2.9091c0 1.6067 1.302 2.9091 2.909 2.9091z" fill="#4285f4"/></g><g mask="url(#L)"><path d="m136 52.2728c-2.008 0-3.636 1.6282-3.636 3.6364v.0909c0-2.0082 1.628-3.6364 3.636-3.6364h8v-.0909z" fill="#3e2723" fill-opacity=".2"/><path d="m139.145 57.8182c-.629 1.0854-1.8 1.8182-3.145 1.8182s-2.517-.7328-3.146-1.8182h-.004l-4.85-8.32v.0909l4.851 8.32h.004c.629 1.0854 1.8 1.8182 3.146 1.8182 1.344 0 2.516-.7319 3.145-1.8182h.005v-.0909z" fill="#fff" fill-opacity=".1"/><path d="m136.091 52.3636c-.016 0-.03.0019-.046.0028 1.988.0245 3.591 1.6409 3.591 3.6336s-1.603 3.6091-3.591 3.6336c.016 0 .03.0028.046.0028 2.008 0 3.636-1.6282 3.636-3.6364s-1.628-3.6364-3.636-3.6364z" fill="#3e2723" opacity=".1"/><path d="m139.182 57.939c.309-.5345.488-1.1527.488-1.8145 0-.3837-.06-.7527-.17-1.0991.086.3109.136.6373.136.9754 0 .6619-.179 1.28-.488 1.8146l.002.0036-3.535 6.1818h.106l3.462-6.0581z" fill="#fff" fill-opacity=".2"/></g><g mask="url(#M)"><path d="m136 48.0909c4.403 0 7.975 3.5573 7.999 7.9546 0-.0155.001-.03.001-.0455 0-4.4182-3.582-8-8-8s-8 3.5818-8 8c0 .0155.001.03.001.0455.024-4.3973 3.596-7.9546 7.999-7.9546z" fill="#fff" fill-opacity=".2"/><path d="m136 63.909c4.403 0 7.975-3.5573 7.999-7.9545 0 .0154.001.03.001.0454 0 4.4182-3.582 8-8 8s-8-3.5818-8-8c0-.0154.001-.03.001-.0454.024 4.3972 3.596 7.9545 7.999 7.9545z" fill="#3e2723" fill-opacity=".15"/><path d="m136 64c4.418 0 8-3.5817 8-8s-3.582-8-8-8-8 3.5817-8 8 3.582 8 8 8z" fill="url(#q)"/></g></g><rect height="229" rx="6.5" stroke="#f0f1f4" width="241" x="119.5" y="39.5"/><g filter="url(#a)"><rect fill="#fff" height="48" rx="8" width="280" x="100" y="89"/><path d="m112.884 110h1.064v-5.117h.078l3.619 5.117h.986v-7.046h-1.065v5.127h-.073l-3.623-5.127h-.986zm9.624.103c1.357 0 2.09-.782 2.265-1.48l.01-.044-1.02.005-.02.039c-.127.273-.532.61-1.211.61-.874 0-1.43-.59-1.45-1.606h3.76v-.371c0-1.592-.908-2.661-2.388-2.661-1.479 0-2.436 1.108-2.436 2.763v.005c0 1.68.937 2.74 2.49 2.74zm-.049-4.639c.718 0 1.25.459 1.333 1.406h-2.695c.092-.913.639-1.406 1.362-1.406zm4.624 4.536h1.079l1.094-3.955h.083l1.099 3.955h1.088l1.46-5.303h-1.049l-.948 4.092h-.083l-1.094-4.092h-1.005l-1.094 4.092h-.078l-.952-4.092h-1.065zm11.631 0h1.094v-6.104h2.212v-.942h-5.523v.942h2.217zm4.985.088c.703 0 1.26-.303 1.572-.84h.083v.752h1.05v-3.628c0-1.113-.752-1.777-2.085-1.777-1.206 0-2.041.581-2.168 1.45l-.005.034h1.021l.005-.019c.127-.376.513-.591 1.099-.591.717 0 1.083.322 1.083.903v.469l-1.435.083c-1.265.078-1.978.63-1.978 1.577v.01c0 .962.747 1.577 1.758 1.577zm-.703-1.621v-.01c0-.478.332-.742 1.065-.786l1.293-.083v.454c0 .684-.581 1.201-1.372 1.201-.571 0-.986-.288-.986-.776zm6.831 1.636c1.26 0 2.197-.669 2.197-1.651v-.01c0-.766-.488-1.201-1.508-1.44l-.84-.19c-.596-.142-.84-.347-.84-.679v-.01c0-.425.42-.713 1.001-.713.596 0 .972.278 1.074.65v.009h1.011v-.005c-.093-.864-.869-1.469-2.08-1.469-1.201 0-2.061.664-2.061 1.587v.005c0 .776.464 1.23 1.465 1.459l.845.196c.615.141.864.366.864.698v.01c0 .434-.454.732-1.108.732-.63 0-1.016-.268-1.148-.669l-.005-.005h-1.059v.005c.102.889.913 1.49 2.192 1.49zm3.511-.103h1.059v-1.929l.455-.454 1.826 2.383h1.289l-2.359-3.066 2.212-2.237h-1.24l-2.104 2.237h-.079v-4.317h-1.059z" fill="#717d96"/><g fill="#cfd3dc"><rect height="8" rx="4" width="100" x="112" y="117"/><rect height="8" rx="4" width="69" x="218" y="117"/></g></g><path d="m0 112h480v80h-480z" fill="url(#s)"/><path d="m0 143h480v49h-480z" fill="url(#t)"/></g></svg>