<svg fill="none" height="192" viewBox="0 0 480 192" width="480" xmlns="http://www.w3.org/2000/svg" xmlns:xlink="http://www.w3.org/1999/xlink"><filter id="a" color-interpolation-filters="sRGB" filterUnits="userSpaceOnUse" height="217.235" width="208.235" x="75.8823" y="29.4485"><feFlood flood-opacity="0" result="BackgroundImageFix"/><feColorMatrix in="SourceAlpha" result="hardAlpha" type="matrix" values="0 0 0 0 0 0 0 0 0 0 0 0 0 0 0 0 0 0 127 0"/><feOffset dy="2.03796"/><feGaussianBlur stdDeviation="1.81152"/><feColorMatrix type="matrix" values="0 0 0 0 0.278431 0 0 0 0 0.32549 0 0 0 0 0.419608 0 0 0 0.111492 0"/><feBlend in2="BackgroundImageFix" mode="normal" result="effect1_dropShadow_148_31799"/><feColorMatrix in="SourceAlpha" result="hardAlpha" type="matrix" values="0 0 0 0 0 0 0 0 0 0 0 0 0 0 0 0 0 0 127 0"/><feOffset dy="4"/><feGaussianBlur stdDeviation="6"/><feColorMatrix type="matrix" values="0 0 0 0 0.278431 0 0 0 0 0.32549 0 0 0 0 0.419608 0 0 0 0.12 0"/><feBlend in2="effect1_dropShadow_148_31799" mode="normal" result="effect2_dropShadow_148_31799"/><feColorMatrix in="SourceAlpha" result="hardAlpha" type="matrix" values="0 0 0 0 0 0 0 0 0 0 0 0 0 0 0 0 0 0 127 0"/><feOffset dy="13.5662"/><feGaussianBlur stdDeviation="12.0588"/><feColorMatrix type="matrix" values="0 0 0 0 0.278431 0 0 0 0 0.32549 0 0 0 0 0.419608 0 0 0 0.208508 0"/><feBlend in2="effect2_dropShadow_148_31799" mode="normal" result="effect3_dropShadow_148_31799"/><feBlend in="SourceGraphic" in2="effect3_dropShadow_148_31799" mode="normal" result="shape"/></filter><linearGradient id="b" gradientUnits="userSpaceOnUse" x1="447.5" x2="447.5" y1="0" y2="192"><stop offset="0" stop-color="#cfd3dc"/><stop offset="1" stop-color="#cfd3dc" stop-opacity="0"/></linearGradient><linearGradient id="c"><stop offset="0" stop-color="#cfd3dc" stop-opacity="0"/><stop offset="1" stop-color="#cfd3dc"/></linearGradient><linearGradient id="d" gradientUnits="userSpaceOnUse" x1="80.5" x2="80.5" xlink:href="#c" y1="100" y2="180"/><linearGradient id="e" gradientUnits="userSpaceOnUse" x1="480.5" x2="480.5" xlink:href="#c" y1="100" y2="148"/><linearGradient id="f"><stop offset="0" stop-color="#fff" stop-opacity="0"/><stop offset="1" stop-color="#fff"/></linearGradient><linearGradient id="g" gradientUnits="userSpaceOnUse" x1="334" x2="334" xlink:href="#f" y1="84" y2="104"/><linearGradient id="h" gradientUnits="userSpaceOnUse" x1="333.947" x2="333.947" xlink:href="#f" y1="154" y2="174"/><linearGradient id="i" gradientUnits="userSpaceOnUse" x1="240" x2="240" xlink:href="#f" y1="112" y2="192"/><linearGradient id="j" gradientUnits="userSpaceOnUse" x1="240" x2="240" xlink:href="#f" y1="143" y2="192"/><clipPath id="k"><path d="m0 0h480v192h-480z"/></clipPath><clipPath id="l"><rect height="64" rx="6" width="92" x="288" y="40"/></clipPath><clipPath id="m"><rect height="64" rx="6" width="92" x="288" y="110"/></clipPath><g clip-path="url(#k)"><path d="m0 0h480v192h-480z" fill="#fcfcfd"/><path d="m447 0h1v192h-1z" fill="url(#b)" opacity=".5"/><path d="m80 100h1v80h-1z" fill="url(#d)" opacity=".3" transform="matrix(0 1 -1 0 180 20)"/><path d="m480 100h1v48h-1z" fill="url(#e)" opacity=".3" transform="matrix(0 1 -1 0 580 -380)"/><g clip-path="url(#l)"><rect fill="#fff" height="64" rx="6" width="92" x="288" y="40"/><g fill="#a4acbc" opacity=".5"><rect height="27.7895" opacity=".5" rx="13.8947" width="27.7895" x="320.578" y="52.1053"/><rect height="60.6316" opacity=".3" rx="30.3158" width="60.6316" x="304.158" y="82.4211"/></g><path d="m288 84h92v20h-92z" fill="url(#g)"/><rect fill="#cfd3dc" height="6" rx="3" width="24" x="296" y="91.0002"/></g><rect height="65" rx="6.5" stroke="#f0f1f4" width="93" x="287.5" y="39.5"/><g clip-path="url(#m)"><rect fill="#fff" height="64" rx="6" width="92" x="288" y="110"/><g fill="#a4acbc" opacity=".5"><rect height="27.7895" opacity=".5" rx="13.8947" width="27.7895" x="320.58" y="122.105"/><rect height="60.6316" opacity=".3" rx="30.3158" width="60.6316" x="304.159" y="152.421"/></g><path d="m287.947 154h92v20h-92z" fill="url(#h)"/><rect fill="#cfd3dc" height="6" rx="3" width="24" x="296" y="161"/></g><rect height="65" rx="6.5" stroke="#f0f1f4" width="93" x="287.5" y="109.5"/><g filter="url(#a)"><rect fill="#fff" height="169" rx="8" width="160" x="100" y="40"/><rect fill="#f0f1f4" height="8" rx="4" width="105" x="112" y="74"/><rect fill="#e6e8ec" height="8" rx="4" width="73" x="112" y="90"/><rect fill="#f9f9fa" height="8" rx="4" width="55" x="112" y="106"/><path d="m134.884 59h1.064v-5.1172h.078l3.619 5.1172h.986v-7.0459h-1.065v5.127h-.073l-3.623-5.127h-.986zm9.624.1025c1.357 0 2.09-.7812 2.265-1.4795l.01-.0439-1.02.0049-.02.039c-.127.2735-.532.6104-1.211.6104-.874 0-1.43-.5908-1.45-1.6064h3.76v-.3711c0-1.5918-.908-2.6612-2.388-2.6612-1.479 0-2.436 1.1084-2.436 2.7637v.0049c0 1.6797.937 2.7392 2.49 2.7392zm-.049-4.6386c.718 0 1.25.459 1.333 1.4062h-2.695c.092-.9131.639-1.4062 1.362-1.4062zm4.624 4.5361h1.079l1.094-3.9551h.083l1.099 3.9551h1.088l1.46-5.3027h-1.049l-.948 4.0918h-.083l-1.094-4.0918h-1.005l-1.094 4.0918h-.078l-.952-4.0918h-1.065zm11.724.0342c.205 0 .4-.0244.571-.0537v-.8448c-.147.0147-.239.0196-.4.0196-.523 0-.738-.2344-.738-.8057v-2.8174h1.138v-.8349h-1.138v-1.3379h-1.079v1.3379h-.83v.8349h.83v3.0713c0 1.0205.479 1.4307 1.646 1.4307zm3.261.0537c.703 0 1.26-.3027 1.573-.8399h.083v.752h1.049v-3.6279c0-1.1133-.752-1.7774-2.085-1.7774-1.206 0-2.041.5811-2.167 1.4502l-.005.0342h1.02l.005-.0195c.127-.376.513-.5908 1.099-.5908.717 0 1.084.3222 1.084.9033v.4687l-1.436.083c-1.265.0782-1.977.6299-1.977 1.5772v.0097c0 .962.747 1.5772 1.757 1.5772zm-.703-1.6211v-.0098c0-.4785.332-.7422 1.065-.7861l1.294-.083v.4541c0 .6836-.581 1.2012-1.372 1.2012-.572 0-.987-.2881-.987-.7764zm6.831 1.6357c1.26 0 2.198-.6689 2.198-1.6504v-.0097c0-.7666-.489-1.2012-1.509-1.4404l-.84-.1905c-.596-.1416-.84-.3467-.84-.6787v-.0098c0-.4248.42-.7128 1.001-.7128.596 0 .972.2783 1.074.6494v.0097h1.011v-.0048c-.093-.8643-.869-1.4698-2.08-1.4698-1.201 0-2.061.6641-2.061 1.5869v.0049c0 .7764.464 1.2305 1.465 1.46l.845.1953c.615.1416.864.3662.864.6982v.0098c0 .4346-.454.7324-1.108.7324-.63 0-1.016-.2685-1.148-.6689l-.005-.0049h-1.059v.0049c.102.8887.913 1.4892 2.192 1.4892zm3.511-.1025h1.06v-1.9287l.454-.4541 1.826 2.3828h1.289l-2.358-3.0664 2.211-2.2363h-1.24l-2.104 2.2363h-.078v-4.3164h-1.06z" fill="#717d96"/><g opacity=".8"><path d="m116.964 55.9162 1.429 1.6338 1.922 1.2284.336-2.8522-.336-2.7885-1.959 1.0792z" fill="#00832d"/><path d="m108.668 58.5137v2.4299c0 .5555.45 1.0055 1.006 1.0055h2.43l.503-1.8367-.503-1.5987-1.668-.5027z" fill="#0066da"/><path d="m112.104 49.8833-3.436 3.4354 1.768.5027 1.668-.5027.494-1.5769z" fill="#e94235"/><path d="m112.104 53.3187h-3.436v5.195h3.436z" fill="#2684fc"/><path d="m122.511 51.338-2.196 1.7998v5.6407l2.206 1.8082c.33.258.812.0226.812-.3972v-8.4627c0-.4248-.493-.6578-.822-.3888zm-5.547 4.5782v2.5975h-4.86v3.4354h7.206c.555 0 1.005-.45 1.005-1.0055v-2.1651z" fill="#00ac47"/><path d="m119.31 49.8833h-7.206v3.4354h4.86v2.5974l3.351-2.7767v-2.2506c0-.5555-.45-1.0055-1.005-1.0055z" fill="#ffba00"/></g></g><path d="m0 112h480v80h-480z" fill="url(#i)"/><path d="m0 143h480v49h-480z" fill="url(#j)"/></g></svg>