<svg xmlns="http://www.w3.org/2000/svg" xmlns:xlink="http://www.w3.org/1999/xlink" width="500" zoomAndPan="magnify" viewBox="0 0 375 374.999991" height="500" preserveAspectRatio="xMidYMid meet" version="1.0"> <style> :root { --text-gradient-top: #14b8a6; --text-gradient-bottom: #5eead4; --flash-gradient-top: #ccfbf1; --flash-gradient-bottom: #dadada; --flash-border1: black; --flash-border2: black; } </style> <defs> <linearGradient gradientTransform="rotate(360, 0.5, 0.5)" x1="50%" y1="0%" x2="50%" y2="100%" id="ffflux-gradient"> <stop stop-color="var(--flash-gradient-top)" stop-opacity="1" offset="0%"> </stop> <stop stop-color="var(--flash-gradient-bottom)" stop-opacity="1" offset="100%"> </stop> </linearGradient> </defs> <defs> <linearGradient gradientTransform="rotate(360, 0.5, 0.5)" x1="50%" y1="0%" x2="50%" y2="100%" id="text-gradient"> <stop stop-color="var(--text-gradient-top)" stop-opacity="1" offset="0%"> </stop> <stop stop-color="var(--text-gradient-bottom)" stop-opacity="1" offset="100%"> </stop> </linearGradient> </defs> <!-- <circle cx="187.5" cy="187.5" r="187.5" fill="url(#ffflux-gradient)"></circle> --> <g fill="url(#text-gradient)" fill-opacity="1"> <g transform="translate(7.384847, 324.499177)"> <g> <path d="M 81.59375 4.625 C 63.375 4.625 46.628906 1.222656 31.359375 -5.578125 C 16.097656 -12.378906 3.59375 -22.066406 -6.15625 -34.640625 L 28.484375 -76.203125 C 43.109375 -56.441406 59.785156 -46.5625 78.515625 -46.5625 C 103.910156 -46.5625 116.609375 -61.441406 116.609375 -91.203125 L 116.609375 -219.359375 L 21.9375 -219.359375 L 21.9375 -269.390625 L 178.5625 -269.390625 L 178.5625 -94.671875 C 178.5625 -61.578125 170.351562 -36.753906 153.9375 -20.203125 C 137.519531 -3.648438 113.40625 4.625 81.59375 4.625 Z M 81.59375 4.625 " /> </g> </g> </g> <g fill="url(#text-gradient)" fill-opacity="1"> <g transform="translate(176.329712, 324.499177)"> <g> <path d="M 97.359375 3.078125 C 80.171875 3.078125 63.367188 0.960938 46.953125 -3.265625 C 30.535156 -7.503906 17.453125 -12.832031 7.703125 -19.25 L 27.703125 -62.34375 C 36.941406 -56.445312 48.101562 -51.632812 61.1875 -47.90625 C 74.269531 -44.1875 87.097656 -42.328125 99.671875 -42.328125 C 125.078125 -42.328125 137.78125 -48.613281 137.78125 -61.1875 C 137.78125 -67.09375 134.316406 -71.328125 127.390625 -73.890625 C 120.460938 -76.453125 109.8125 -78.632812 95.4375 -80.4375 C 78.507812 -83 64.523438 -85.945312 53.484375 -89.28125 C 42.453125 -92.613281 32.894531 -98.515625 24.8125 -106.984375 C 16.738281 -115.453125 12.703125 -127.507812 12.703125 -143.15625 C 12.703125 -156.238281 16.484375 -167.847656 24.046875 -177.984375 C 31.617188 -188.117188 42.648438 -196.007812 57.140625 -201.65625 C 71.640625 -207.300781 88.769531 -210.125 108.53125 -210.125 C 123.15625 -210.125 137.710938 -208.519531 152.203125 -205.3125 C 166.703125 -202.101562 178.695312 -197.675781 188.1875 -192.03125 L 168.171875 -149.3125 C 149.960938 -159.582031 130.082031 -164.71875 108.53125 -164.71875 C 95.695312 -164.71875 86.070312 -162.921875 79.65625 -159.328125 C 73.25 -155.734375 70.046875 -151.113281 70.046875 -145.46875 C 70.046875 -139.050781 73.507812 -134.5625 80.4375 -132 C 87.363281 -129.4375 98.394531 -127 113.53125 -124.6875 C 130.457031 -121.863281 144.304688 -118.847656 155.078125 -115.640625 C 165.859375 -112.429688 175.222656 -106.59375 183.171875 -98.125 C 191.128906 -89.664062 195.109375 -77.867188 195.109375 -62.734375 C 195.109375 -49.898438 191.257812 -38.476562 183.5625 -28.46875 C 175.875 -18.46875 164.648438 -10.707031 149.890625 -5.1875 C 135.140625 0.320312 117.628906 3.078125 97.359375 3.078125 Z M 97.359375 3.078125 " /> </g> </g> </g> <g clip-path="url(#2f6a012248)"> <g clip-path="url(#8e9610c7b0)"> <g clip-path="url(#3f8c6a8047)"> <path fill="var(--flash-border1)" d="M 160.480469 46.351562 L 230.875 23.789062 L 205.371094 136.277344 L 246.632812 123.046875 L 179.238281 342.832031 L 190.382812 185.554688 L 146.195312 202.167969 Z M 160.480469 46.351562 " fill-opacity="1" fill-rule="nonzero" /> </g> </g> </g> <g clip-path="url(#386e9e1760)"> <g clip-path="url(#79bf31e59d)"> <g clip-path="url(#8e1386109f)"> <path fill="var(--flash-border1)" d="M 160.480469 46.351562 L 172.617188 42.460938 L 146.195312 202.167969 Z M 179.238281 342.832031 L 198.882812 182.832031 L 190.382812 185.554688 Z M 179.238281 342.832031 " fill-opacity="1" fill-rule="nonzero" /> </g> </g> </g> <g clip-path="url(#2fbc512d1a)"> <g clip-path="url(#4dab92444c)"> <g clip-path="url(#8819893990)"> <path fill="url(#ffflux-gradient)" d="M 152.445312 58.265625 L 222.390625 34.339844 L 199.066406 147.300781 L 240.066406 133.277344 L 176.941406 354.328125 L 185.039062 196.863281 L 141.179688 214.328125 Z M 152.445312 58.265625 " fill-opacity="1" fill-rule="nonzero" /> </g> </g> </g> <g clip-path="url(#97ae1e58f3)"> <g clip-path="url(#afb5d30d69)"> <g clip-path="url(#6172e8b2e4)"> <path fill="var(--flash-border2)" d="M 152.445312 58.265625 L 164.503906 54.140625 L 141.179688 214.328125 Z M 176.941406 354.328125 L 193.484375 193.972656 L 185.039062 196.863281 Z M 176.941406 354.328125 " fill-opacity="1" fill-rule="nonzero" /> </g> </g> </g> </svg>